<svg xmlns="http://www.w3.org/2000/svg" width="67.514" height="30.483" viewBox="0 0 67.514 30.483"><g transform="translate(-372.478 -196.316)"><path d="M375.461,202.284a2.982,2.982,0,1,0-2.11-.874,3,3,0,0,0,2.11.874" fill="#fff"/><path d="M390.848,202.284a2.984,2.984,0,1,0-2.11-.874,3,3,0,0,0,2.11.874" fill="#fff"/><path d="M421.614,202.284h.015a2.984,2.984,0,1,0,0-5.968h-.015a2.984,2.984,0,1,0,0,5.968Z" fill="#fff"/><path d="M406.227,202.284h.015a2.984,2.984,0,1,0,0-5.968h-.015a2.984,2.984,0,0,0,0,5.968Z" fill="#fff"/><path d="M437.008,202.284a2.982,2.982,0,1,0-2.111-.874,3,3,0,0,0,2.111.874" fill="#fff"/><path d="M375.461,214.542a2.984,2.984,0,1,0-2.11-.875,3.006,3.006,0,0,0,2.11.875" fill="#fff"/><path d="M390.848,214.542a2.986,2.986,0,1,0-2.11-.875,3,3,0,0,0,2.11.875" fill="#fff"/><path d="M421.614,214.542h.015a2.984,2.984,0,1,0,0-5.968h-.015a2.984,2.984,0,1,0,0,5.968Z" fill="#fff"/><path d="M406.227,214.542h.015a2.984,2.984,0,1,0,0-5.968h-.015a2.984,2.984,0,0,0,0,5.968Z" fill="#fff"/><path d="M437.008,214.542a2.984,2.984,0,1,0-2.111-.875,3.005,3.005,0,0,0,2.111.875" fill="#fff"/><path d="M375.461,226.8a2.982,2.982,0,1,0-2.11-.874,3,3,0,0,0,2.11.874" fill="#fff"/><path d="M390.848,226.8a2.984,2.984,0,1,0-2.11-.874,3,3,0,0,0,2.11.874" fill="#fff"/><path d="M421.614,226.8h.015a2.984,2.984,0,1,0,0-5.968h-.015a2.984,2.984,0,1,0,0,5.968Z" fill="#fff"/><path d="M406.227,226.8h.015a2.984,2.984,0,1,0,0-5.968h-.015a2.984,2.984,0,0,0,0,5.968Z" fill="#fff"/><path d="M437.008,226.8a2.982,2.982,0,1,0-2.111-.874,3,3,0,0,0,2.111.874" fill="#fff"/></g></svg>