<svg xmlns="http://www.w3.org/2000/svg" width="57" height="48.08" viewBox="0 0 57 48.08">
  <g id="Group_1" data-name="Group 1" transform="translate(-122 -101.92)">
    <text id="MUJIB" transform="translate(122 146)" fill="#fff" font-size="18" font-family="Exodar"><tspan x="0" y="0">MUJIB</tspan></text>
    <g id="Group_11" data-name="Group 11" transform="translate(-625.626 -416.16)">
      <path id="Path_43" data-name="Path 43" d="M772.783,529.2c2.225,4.763,5.007,8.18,6.208,7.613s.371-4.88-1.864-9.644-3.4-4.744-4.6-4.187S770.557,524.438,772.783,529.2Z" transform="translate(-5.911 -4.199)" fill="#f9eeea"/>
      <path id="Path_44" data-name="Path 44" d="M789.749,546.771a9.289,9.289,0,0,1-1.474-1.64,30.4,30.4,0,0,1-2.918-5.027c-1.142-2.44-1.337-3.563-1.3-4.07.02-.234.02-.3.449-.5a1.24,1.24,0,0,1,.42-.137c.1,0,.322.127.635.478a14.518,14.518,0,0,1,1.9,3.25,29.887,29.887,0,0,1,1.981,5.466A10.28,10.28,0,0,1,789.749,546.771Z" transform="translate(-17.363 -15.63)" fill="#f2d8ce"/>
      <path id="Path_45" data-name="Path 45" d="M898.925,529.2c-2.225,4.763-5.007,8.18-6.208,7.613s-.371-4.88,1.864-9.644,3.4-4.744,4.6-4.187S901.16,524.438,898.925,529.2Z" transform="translate(-114.923 -4.199)" fill="#f9eeea"/>
      <path id="Path_46" data-name="Path 46" d="M905,546.771a9.836,9.836,0,0,1,.312-2.177,29.37,29.37,0,0,1,1.981-5.466,14.516,14.516,0,0,1,1.9-3.25c.312-.351.527-.478.634-.478a1.308,1.308,0,0,1,.42.137c.42.2.43.264.449.5.039.508-.156,1.63-1.3,4.07a29.606,29.606,0,0,1-2.918,5.027A10.093,10.093,0,0,1,905,546.771Z" transform="translate(-126.504 -15.63)" fill="#f2d8ce"/>
      <g id="Group_7" data-name="Group 7" transform="translate(764.813 518.08)">
        <path id="Path_47" data-name="Path 47" d="M772.6,533.223c-.742,0-1.679-.683-2.782-2.04a29.619,29.619,0,0,1-3.543-5.9h0c-1.074-2.284-1.532-3.846-1.454-4.91a2.5,2.5,0,0,1,3.787-1.767c.859.625,1.767,1.981,2.831,4.265a28.925,28.925,0,0,1,2.245,6.51c.41,2.108.2,3.367-.605,3.738A1.1,1.1,0,0,1,772.6,533.223Zm-5.505-8.316a28.227,28.227,0,0,0,3.426,5.71c1.259,1.552,1.972,1.776,2.177,1.689s.478-.791.1-2.753a28.7,28.7,0,0,0-2.177-6.3c-2.235-4.783-3.211-4.334-3.992-3.963a1.252,1.252,0,0,0-.9,1.152C765.661,521.335,766.11,522.789,767.1,524.907Z" transform="translate(-764.813 -518.17)" fill="#4f378f"/>
        <path id="Path_48" data-name="Path 48" d="M886.985,533.133a1.178,1.178,0,0,1-.478-.107c-.81-.381-1.015-1.64-.605-3.738a30.112,30.112,0,0,1,2.245-6.51c1.074-2.284,1.972-3.641,2.831-4.265a2.5,2.5,0,0,1,3.787,1.767c.078,1.064-.381,2.616-1.454,4.91h0a29.341,29.341,0,0,1-3.543,5.9C888.664,532.45,887.727,533.133,886.985,533.133Zm5.261-14.143c-.7,0-1.659.722-3.27,4.178a28.2,28.2,0,0,0-2.177,6.3c-.381,1.962-.1,2.655.1,2.753s.908-.137,2.177-1.689a28.228,28.228,0,0,0,3.426-5.71h0c.986-2.118,1.435-3.573,1.376-4.461a1.252,1.252,0,0,0-.9-1.152A1.683,1.683,0,0,0,892.246,518.99ZM892.9,525Z" transform="translate(-873.897 -518.08)" fill="#4f378f"/>
      </g>
      <g id="Group_8" data-name="Group 8" transform="translate(766.364 529.092)">
        <path id="Path_49" data-name="Path 49" d="M798.855,639.343c0,4.1-5.085,7.418-9.175,7.418s-8.98-3.319-8.98-7.418,4.89-8.443,8.98-8.443S798.855,635.253,798.855,639.343Z" transform="translate(-780.7 -630.9)" fill="#f9eeea"/>
        <path id="Path_50" data-name="Path 50" d="M792.568,630.9a5.2,5.2,0,0,0-.674.039c3.319.664,6.891,4.06,6.891,7.272,0,3.582-4.451,6.491-8.033,6.491a8.912,8.912,0,0,1-6.852-3.524c1.152,3.211,5.193,5.593,8.658,5.593,4.1,0,9.175-3.319,9.175-7.418S796.657,630.9,792.568,630.9Z" transform="translate(-783.588 -630.899)" fill="#f2d8ce"/>
      </g>
      <path id="Path_51" data-name="Path 51" d="M785.439,643.059a10.742,10.742,0,0,1-6.305-2.264,8.961,8.961,0,0,1-2.245-2.489,6.045,6.045,0,0,1-.888-3.114,8.667,8.667,0,0,1,3.1-6.091,9.856,9.856,0,0,1,6.335-2.8,10.193,10.193,0,0,1,6.432,2.8,8.587,8.587,0,0,1,3.2,6.091,5.948,5.948,0,0,1-.927,3.124,8.916,8.916,0,0,1-2.313,2.479A11.114,11.114,0,0,1,785.439,643.059Zm0-15.851a8.947,8.947,0,0,0-5.72,2.567,9.8,9.8,0,0,0-2.03,2.587,6.009,6.009,0,0,0-.771,2.831,5.191,5.191,0,0,0,.761,2.655,8.092,8.092,0,0,0,2.011,2.225,9.794,9.794,0,0,0,5.749,2.079,10.17,10.17,0,0,0,5.847-2.079,8.237,8.237,0,0,0,2.079-2.225,5.039,5.039,0,0,0,.791-2.645,5.948,5.948,0,0,0-.8-2.831,10.11,10.11,0,0,0-2.1-2.587A9.226,9.226,0,0,0,785.439,627.208Z" transform="translate(-10.095 -97.657)" fill="#4f378f"/>
      <g id="Group_9" data-name="Group 9" transform="translate(771.08 534.877)">
        <path id="Path_52" data-name="Path 52" d="M831.878,691.809a.459.459,0,0,1-.41-.254.864.864,0,0,0-.273-.322.875.875,0,0,0-.742-.137.9.9,0,0,0-.576.459.452.452,0,1,1-.81-.4,1.779,1.779,0,0,1,1.161-.937,1.862,1.862,0,0,1,1.5.283,1.74,1.74,0,0,1,.547.644.453.453,0,0,1-.2.605A.352.352,0,0,1,831.878,691.809Z" transform="translate(-829.02 -690.166)" fill="#4f378f"/>
        <path id="Path_53" data-name="Path 53" d="M884.88,691.809a.524.524,0,0,1-.205-.049.453.453,0,0,1-.2-.605,1.779,1.779,0,0,1,1.162-.937,1.861,1.861,0,0,1,1.5.283,1.741,1.741,0,0,1,.547.644.453.453,0,0,1-.205.605.445.445,0,0,1-.605-.2.864.864,0,0,0-.273-.322.875.875,0,0,0-.742-.137.9.9,0,0,0-.576.459A.444.444,0,0,1,884.88,691.809Z" transform="translate(-879.016 -690.166)" fill="#4f378f"/>
      </g>
      <path id="Path_54" data-name="Path 54" d="M846.1,731.6a2.689,2.689,0,0,0,5.368,0Z" transform="translate(-73.353 -192.679)" fill="#4f378f"/>
      <path id="Path_55" data-name="Path 55" d="M864.284,741.154a2.209,2.209,0,0,1-1.083.283,2.151,2.151,0,0,1-1.2-.361,1.369,1.369,0,0,1,1.123-.576A1.4,1.4,0,0,1,864.284,741.154Z" transform="translate(-87.701 -200.71)" fill="#fd3803"/>
      <path id="Path_56" data-name="Path 56" d="M864.284,741.154a2.209,2.209,0,0,1-1.083.283,2.151,2.151,0,0,1-1.2-.361,1.369,1.369,0,0,1,1.123-.576A1.4,1.4,0,0,1,864.284,741.154Z" transform="translate(-87.701 -200.71)" fill="#fd3803"/>
      <g id="Group_10" data-name="Group 10" transform="translate(768.911 536.813)" opacity="0.54">
        <ellipse id="Ellipse_1" data-name="Ellipse 1" cx="1.083" cy="0.683" rx="1.083" ry="0.683" transform="translate(0 0)" fill="#fd3803"/>
        <ellipse id="Ellipse_2" data-name="Ellipse 2" cx="1.083" cy="0.683" rx="1.083" ry="0.683" transform="translate(10.883 0)" fill="#fd3803"/>
      </g>
    </g>
  </g>
</svg>
